<svg width="29" height="27" viewBox="0 0 29 27" fill="none" xmlns="http://www.w3.org/2000/svg">
<rect width="28.5577" height="27" rx="2" fill="black" fill-opacity="0.5"/>
<rect x="0.5" y="0.5" width="27.5577" height="26" rx="1.5" stroke="black" stroke-opacity="0.5"/>
<path d="M9.43116 8.43212C9.66981 8.19347 10.0216 8.15829 10.2168 8.35355L19.4092 17.5459C19.6045 17.7412 19.5693 18.093 19.3307 18.3316C19.092 18.5703 18.7402 18.6054 18.545 18.4102L9.35259 9.21779C9.15733 9.02253 9.19251 8.67077 9.43116 8.43212Z" fill="#FF0909"/>
<path d="M9.43212 18.3315C9.19347 18.0929 9.15829 17.7411 9.35355 17.5459L18.5459 8.35347C18.7412 8.15821 19.093 8.19339 19.3316 8.43204C19.5703 8.67069 19.6054 9.02245 19.4102 9.21771L10.2178 18.4101C10.0225 18.6054 9.67077 18.5702 9.43212 18.3315Z" fill="#FF0909"/>
</svg>
