<svg width="326" height="150" viewBox="0 0 326 150" fill="none" xmlns="http://www.w3.org/2000/svg">
<path d="M75 9C88.0536 9 100.814 12.8708 111.668 20.123C122.521 27.3752 130.981 37.683 135.976 49.7429C140.971 61.8028 142.278 75.0732 139.732 87.876C137.185 100.679 130.899 112.439 121.669 121.669C112.439 130.899 100.679 137.185 87.8759 139.732C75.0732 142.278 61.8028 140.971 49.7429 135.976C37.6829 130.981 27.3752 122.521 20.123 111.668C12.8708 100.814 8.99999 88.0535 9 75L22.2 75C22.2 85.4428 25.2967 95.6512 31.0984 104.334C36.9001 113.017 45.1464 119.785 54.7943 123.781C64.4422 127.777 75.0586 128.823 85.3008 126.785C95.5429 124.748 104.951 119.719 112.335 112.335C119.719 104.951 124.748 95.543 126.785 85.3008C128.823 75.0586 127.777 64.4423 123.781 54.7943C119.785 45.1464 113.017 36.9001 104.334 31.0984C95.6512 25.2967 85.4428 22.2 75 22.2L75 9Z" fill="black"/>
<path d="M65.6416 9.66682C51.4592 11.6981 38.323 18.2892 28.2169 28.4445C18.1107 38.5999 11.5836 51.768 9.62119 65.96L22.5443 67.7469C24.1188 56.3602 29.3557 45.795 37.4642 37.6471C45.5727 29.4991 56.1123 24.2109 67.4913 22.5811L65.6416 9.66682Z" fill="black"/>
<circle cx="75" cy="75" r="48" fill="black"/>
<path d="M13 75C13 87.2624 16.6362 99.2495 23.4489 109.445C30.2615 119.641 39.9446 127.588 51.2736 132.281C62.6027 136.973 75.0688 138.201 87.0956 135.809C99.1224 133.416 110.17 127.511 118.841 118.841C127.511 110.17 133.416 99.1224 135.809 87.0956C138.201 75.0688 136.973 62.6026 132.281 51.2736C127.588 39.9446 119.641 30.2615 109.445 23.4489C99.2495 16.6362 87.2624 13 75 13L75 75L13 75Z" fill="black"/>
<circle cx="75.5" cy="75.5" r="26.5" fill="white" fill-opacity="0.01" stroke="white" stroke-width="8"/>
<circle cx="75" cy="75" r="7" fill="white"/>
<circle cx="40" cy="110" r="7" fill="white"/>
<circle cx="75" cy="124" r="7" fill="white"/>
<circle cx="109" cy="110" r="7" fill="white"/>
<circle cx="123" cy="75" r="7" fill="white"/>
<circle cx="109" cy="42" r="7" fill="white"/>
<path d="M189.895 94H185.278L198.631 57.6364H203.176L216.528 94H211.912L201.045 63.3892H200.761L189.895 94ZM191.599 79.7955H210.207V83.7017H191.599V79.7955ZM238.812 82.8494V66.7273H243.002V94H238.812V89.3835H238.528C237.888 90.7685 236.894 91.9463 235.545 92.9169C234.195 93.8757 232.491 94.3551 230.431 94.3551C228.727 94.3551 227.211 93.9822 225.886 93.2365C224.56 92.4789 223.518 91.3426 222.761 89.8274C222.003 88.3004 221.624 86.3769 221.624 84.0568V66.7273H225.815V83.7727C225.815 85.7614 226.371 87.3475 227.484 88.5312C228.608 89.715 230.04 90.3068 231.781 90.3068C232.822 90.3068 233.882 90.0405 234.959 89.5078C236.048 88.9751 236.959 88.1584 237.693 87.0575C238.439 85.9567 238.812 84.554 238.812 82.8494ZM262.538 66.7273V70.2784H248.404V66.7273H262.538ZM252.524 60.1932H256.714V86.1875C256.714 87.3712 256.886 88.259 257.229 88.8509C257.584 89.4309 258.034 89.8215 258.578 90.0227C259.135 90.2121 259.721 90.3068 260.336 90.3068C260.798 90.3068 261.177 90.2831 261.472 90.2358C261.768 90.1766 262.005 90.1293 262.183 90.0938L263.035 93.858C262.751 93.9645 262.354 94.071 261.845 94.1776C261.336 94.2959 260.691 94.3551 259.91 94.3551C258.726 94.3551 257.566 94.1006 256.43 93.5916C255.305 93.0826 254.37 92.3073 253.624 91.2656C252.891 90.224 252.524 88.91 252.524 87.3239V60.1932ZM279.628 94.5682C277.166 94.5682 275.005 93.9822 273.147 92.8104C271.3 91.6385 269.856 89.9991 268.814 87.892C267.785 85.785 267.27 83.3229 267.27 80.5057C267.27 77.6648 267.785 75.1849 268.814 73.0661C269.856 70.9472 271.3 69.3018 273.147 68.13C275.005 66.9581 277.166 66.3722 279.628 66.3722C282.09 66.3722 284.244 66.9581 286.091 68.13C287.949 69.3018 289.393 70.9472 290.423 73.0661C291.465 75.1849 291.986 77.6648 291.986 80.5057C291.986 83.3229 291.465 85.785 290.423 87.892C289.393 89.9991 287.949 91.6385 286.091 92.8104C284.244 93.9822 282.09 94.5682 279.628 94.5682ZM279.628 90.804C281.498 90.804 283.037 90.3246 284.244 89.3658C285.452 88.407 286.345 87.1463 286.925 85.5838C287.505 84.0213 287.795 82.3286 287.795 80.5057C287.795 78.6828 287.505 76.9841 286.925 75.4098C286.345 73.8355 285.452 72.563 284.244 71.5923C283.037 70.6217 281.498 70.1364 279.628 70.1364C277.757 70.1364 276.219 70.6217 275.011 71.5923C273.804 72.563 272.91 73.8355 272.33 75.4098C271.75 76.9841 271.46 78.6828 271.46 80.5057C271.46 82.3286 271.75 84.0213 272.33 85.5838C272.91 87.1463 273.804 88.407 275.011 89.3658C276.219 90.3246 277.757 90.804 279.628 90.804Z" fill="black"/>
<path d="M299.665 57.6364L309.04 72.7642H309.324L318.699 57.6364H323.884L312.449 75.8182L323.884 94H318.699L309.324 79.1562H309.04L299.665 94H294.48L306.199 75.8182L294.48 57.6364H299.665Z" fill="#FF0909"/>
</svg>
